<?xml version="1.0" encoding="utf-8"?>
<?xml-stylesheet type="text/xsl" href="rss1.xsl"?>
<rss version="2.0" xmlns:atom="http://www.w3.org/2005/Atom" xmlns:content="http://purl.org/rss/1.0/modules/content/" xmlns:dc="http://purl.org/dc/elements/1.1/" xmlns:media="http://search.yahoo.com/mrss/">
<channel>
 <title>Getty</title>
 <link>http://www.gettyimg.com/</link>
 <atom:link href="http://www.gettyimg.com/" rel="self" type="application/rss+xml" />

 
                <item>
                <title><![CDATA[【Albums (lossless)】FLAC - Alan Walker, JVKE, YUQI - Fire! (feat. YUQI ((G)IDLE), JVKE) 2023 [Kkbox 24bit/44kHz]]]></title>
                <link><![CDATA[https://sharemania.us/threads/alan-walker-jvke-yuqi-fire-feat-yuqi-g-idle-jvke-2023-kkbox-24bit-44khz.233976/]]></link>
                <description><![CDATA[<article>
<blockquote class="messageText SelectQuoteContainer ugc baseHtml">
<img src="https://i.postimg.cc/Jn9NR7V7/cover.png" class="bbCodeImage LbImage" alt="[​IMG]" data-url="https://i.postimg.cc/Jn9NR7V7/cover.png" style=""> <img src="https://i.postimg.cc/15Kvr61p/80255459-002.jpg" class="bbCodeImage LbImage" alt="[​IMG]" data-url="https://i.postimg.cc/15Kvr61p/80255459-002.jpg" style=""><br>
<img src="https://i.postimg.cc/JhY3dcpk/80347335.jpg" class="bbCodeImage LbImage" alt="[​IMG]" data-url="https://i.postimg.cc/JhY3dcpk/80347335.jpg" style=""><br>
<img src="https://i.postimg.cc/PrH6Dy9X/80307308-008.jpg" class="bbCodeImage LbImage" alt="[​IMG]" data-url="https://i.postimg.cc/PrH6Dy9X/80307308-008.jpg" style=""><br>
<br>
<br>
<b>Introduce:</b><br>
아티스트 Alan Walker(알렌 워커) CONNECT 아티스트 , 우기 ((여자)아이들) , JVKE<br>
참여 정보 보컬 우기 ((여자)아이들) , JVKE DJ Alan Walker(알렌 워커)<br>
앨범 종류 싱글<br>
발매일 2023.12.14<br>
장르 팝<br>
스타일 댄스 팝, 일렉트로닉 팝<br>
기획사 MER Recordings AS<br>
유통사 FUGA<br>
재생 시간 02:03<br>
<br>
<b>Track:</b><br>
<br>
01. Fire! (feat. YUQI ((G)I-DLE), JVKE)<br>
<br>
<div style="text-align: center"><span data-s9e-mediaembed="youtube" style="display:inline-block;width:100%;max-width:640px"><span style="display:block;overflow:hidden;position:relative;padding-bottom:56.25%"><iframe allowfullscreen="" loading="lazy" scrolling="no" style="background:url(https://i.ytimg.com/vi/Vc8PkTVxBMo/hqdefault.jpg) 50% 50% / cover;border:0;height:100%;left:0;position:absolute;width:100%" src="https://www.youtube.com/embed/Vc8PkTVxBMo"></iframe></span></span><br>
<br>
<span data-s9e-mediaembed="spotify" style="display:inline-block;width:100%;max-width:320px"><span style="display:block;overflow:hidden;position:relative;padding-bottom:125%;padding-bottom:calc(100% + 80px)"><iframe allow="encrypted-media" allowfullscreen="" loading="lazy" scrolling="no" src="https://open.spotify.com/embed/album/5uI3nK40uWp8fRu9Cvk71w" style="border:0;height:100%;left:0;position:absolute;width:100%"></iframe></span></span><br>
<br>
<div class="bbCodeBlock bbCodeVfcHH HiddenContent">
<div class="attribution type">Hidden Content:</div>
<blockquote>You must reply before you can see the hidden data contained here.</blockquote>
</div><b>Unzip the password:<br>
<br>
<div class="bbCodeBlock bbCodeVfcHH HiddenContent">
<div class="attribution type">Hidden Content:</div>
<blockquote>You must either reply or click 'Like' to see the hidden information contained here.</blockquote>
</div></b>​</div>
<div class="messageTextEndMarker">&nbsp;</div>
</blockquote>
</article>]]></description>
                <author><![CDATA[Maco13]]></author>
                </item>

                
                <item>
                <title><![CDATA[【Cinema Center】SERIES - Thomas and Friends - Season 21 - 1080p Amazon WEB-DL DDP2.0 H.264-LAZY]]></title>
                <link><![CDATA[https://sharemania.us/threads/thomas-and-friends-season-21-1080p-amazon-web-dl-ddp2-0-h-264-lazy.233977/]]></link>
                <description><![CDATA[<article>
<blockquote class="messageText SelectQuoteContainer ugc baseHtml">
Thomas and Friends:<img src="http:////cdn2.broadcasthe.net/tvdb/banners/graphical/11466-g.jpg" class="bbCodeImage LbImage" alt="[​IMG]" data-url="http:////cdn2.broadcasthe.net/tvdb/banners/graphical/11466-g.jpg" style=""> <br>
<br>
<div class="bbCodeBlock bbCodeQuote">
<aside>
<blockquote class="quoteContainer"><div class="quote"><i><b>Synopsis:</b></i><br>
Thomas and Friends is a British children's television series, first broadcast on the ITV network in September 1984. Until 2003, it was named Thomas the Tank Engine and Friends. This series was shot on 35mm film. The first 12 Series were filmed at Shepperton Studios, England between 1984 and 2008, with production now in CGI at Nitrogen Studios in Canada from 2009 onward.</div><div class="quoteExpand">Click to expand...</div></blockquote>
</aside>
</div>
<div class="ToggleTriggerAnchor bbCodeSpoilerContainer">
<button type="button" class="button bbCodeSpoilerButton ToggleTrigger Tooltip JsOnly" data-target="> .SpoilerTarget"><span>Spoiler: <span class="SpoilerTitle">MediaInfo</span></span></button>
<div class="SpoilerTarget bbCodeSpoilerText">General<br>
Unique ID : 252484416975219920376770698138729337528 (0xBDF2BADBAB1878FE788BEF65F0E452B8)<br>
Complete name : Thomas.and.Friends.S21E01.Springtime.for.Diesel.1080p.AMZN.WEB-DL.DDP2.0.H.264-LAZY.mkv<br>
Format : Matroska<br>
Format version : Version 4<br>
File size : 506 MiB<br>
Duration : 11 min 4 s<br>
Overall bit rate : 6 384 kb/s<br>
Encoded date : UTC 2023-12-14 19:20:33<br>
Writing application : mkvmerge v81.0 ('Milliontown') 64-bit<br>
Writing library : libebml v1.4.4 + libmatroska v1.7.1<br>
<br>
Video<br>
ID : 1<br>
Format : AVC<br>
Format/Info : Advanced Video Codec<br>
Format profile : High@L4<br>
Format settings : CABAC / 4 Ref Frames<br>
Format settings, CABAC : Yes<br>
Format settings, Reference frames : 4 frames<br>
Codec ID : V_MPEG4/ISO/AVC<br>
Duration : 11 min 4 s<br>
Bit rate mode : Constant<br>
Bit rate : 6 158 kb/s<br>
Nominal bit rate : 10 000 kb/s<br>
Width : 1 920 pixels<br>
Height : 1 080 pixels<br>
Display aspect ratio : 16:9<br>
Frame rate mode : Constant<br>
Frame rate : 25.000 FPS<br>
Color space : YUV<br>
Chroma subsampling : 4:2:0<br>
Bit depth : 8 bits<br>
Scan type : Progressive<br>
Bits/(Pixel*Frame) : 0.119<br>
Stream size : 488 MiB (96%)<br>
Default : Yes<br>
Forced : No<br>
Color range : Limited<br>
Color primaries : BT.709<br>
Transfer characteristics : BT.709<br>
Matrix coefficients : BT.709<br>
<br>
Audio<br>
ID : 2<br>
Format : E-AC-3<br>
Format/Info : Enhanced AC-3<br>
Commercial name : Dolby Digital Plus<br>
Codec ID : A_EAC3<br>
Duration : 11 min 4 s<br>
Bit rate mode : Constant<br>
Bit rate : 224 kb/s<br>
Channel(s) : 2 channels<br>
Channel layout : L R<br>
Sampling rate : 48.0 kHz<br>
Frame rate : 31.250 FPS (1536 SPF)<br>
Compression mode : Lossy<br>
Stream size : 17.8 MiB (4%)<br>
Language : English<br>
Service kind : Complete Main<br>
Default : Yes<br>
Forced : No<br>
<br>
Text<br>
ID : 3<br>
Format : UTF-8<br>
Codec ID : S_TEXT/UTF8<br>
Codec ID/Info : UTF-8 Plain Text<br>
Duration : 10 min 36 s<br>
Bit rate : 55 b/s<br>
Count of elements : 175<br>
Stream size : 4.27 KiB (0%)<br>
Title : SDH<br>
Language : English<br>
Default : No<br>
Forced : No</div>
</div><br>
Screenshots:<br>
<img src="https://i.imgur.com/t8aTGrA.jpg" class="bbCodeImage LbImage" alt="[​IMG]" data-url="https://i.imgur.com/t8aTGrA.jpg" style=""> <br>
<br>
<div class="bbCodeBlock bbCodeVfcHH HiddenContent">
<div class="attribution type">Hidden Content:</div>
<blockquote>You must either reply or click 'Like' to see the hidden information contained here.</blockquote>
</div>
<div class="messageTextEndMarker">&nbsp;</div>
</blockquote>
</article>]]></description>
                <author><![CDATA[LazyRips]]></author>
                </item>

                </channel></rss>